<svg width="387" height="267" viewBox="0 0 387 267" fill="none" xmlns="http://www.w3.org/2000/svg">
<g clip-path="url(#clip0_4447_4198)">
<mask id="mask0_4447_4198" style="mask-type:alpha" maskUnits="userSpaceOnUse" x="0" y="2" width="387" height="267">
<rect y="2" width="387" height="267" rx="32" fill="#D9D9D9"/>
</mask>
<g mask="url(#mask0_4447_4198)">
<g opacity="0.1">
<path d="M377.722 234.924L312.51 197.274C304.785 192.844 298.026 186.906 292.626 179.803C287.225 172.7 283.291 164.574 281.051 155.895L315.144 146.526C316.225 150.703 318.12 154.613 320.719 158.032C323.318 161.451 326.57 164.31 330.287 166.445L395.499 204.095C397.23 205.094 399.292 205.356 401.231 204.823C403.171 204.29 404.829 203.006 405.842 201.252L408.979 195.818L328.376 105.622C325.203 102.061 323.245 97.5678 322.782 92.7865C322.319 88.0052 323.375 83.1824 325.799 79.0109L333.52 65.6371C339.259 55.6966 348.662 48.4142 359.66 45.3919C370.658 42.3695 382.35 43.8548 392.164 49.521L457.376 87.171C465.096 91.6028 471.85 97.5408 477.247 104.641C482.644 111.742 486.577 119.865 488.818 128.54L454.617 137.824C453.539 133.65 451.647 129.741 449.051 126.324C446.455 122.906 443.205 120.048 439.491 117.915L374.279 80.2649C372.548 79.2656 370.486 79.0037 368.547 79.5368C366.607 80.0698 364.949 81.3541 363.937 83.1072L360.799 88.5419L441.402 178.737C444.578 182.297 446.538 186.791 447.001 191.573C447.464 196.355 446.406 201.178 443.979 205.349L436.229 218.774C430.496 228.682 421.121 235.945 410.156 238.972C399.19 241.999 387.528 240.543 377.722 234.924Z" fill="#0052FF"/>
</g>
</g>
</g>
<defs>
<clipPath id="clip0_4447_4198">
<rect width="387" height="267" fill="white"/>
</clipPath>
</defs>
</svg>
